<mxfile host="Electron" modified="2024-01-16T18:39:42.775Z" agent="Mozilla/5.0 (Windows NT 10.0; Win64; x64) AppleWebKit/537.36 (KHTML, like Gecko) draw.io/22.1.16 Chrome/120.0.6099.109 Electron/28.1.0 Safari/537.36" etag="vjeaMqC5H4XthHVHP58B" version="22.1.16" type="device">
  <diagram name="Page-1" id="zY7SxFBhwLeRdlEAGRFr">
    <mxGraphModel dx="1098" dy="988" grid="1" gridSize="10" guides="1" tooltips="1" connect="1" arrows="1" fold="1" page="1" pageScale="1" pageWidth="850" pageHeight="1100" math="0" shadow="0">
      <root>
        <mxCell id="0" />
        <mxCell id="1" parent="0" />
        <mxCell id="jwf3IsL6oHCS6uraMTBT-2" value="Fargate" style="rounded=0;whiteSpace=wrap;html=1;fillColor=none;dashed=1;strokeWidth=2;strokeColor=#d77a00;labelPosition=center;verticalLabelPosition=middle;align=center;verticalAlign=top;" vertex="1" parent="1">
          <mxGeometry x="335.49" y="331" width="260" height="179" as="geometry" />
        </mxCell>
        <mxCell id="jwf3IsL6oHCS6uraMTBT-5" style="edgeStyle=orthogonalEdgeStyle;rounded=0;orthogonalLoop=1;jettySize=auto;html=1;" edge="1" parent="1" source="jwf3IsL6oHCS6uraMTBT-1" target="jwf3IsL6oHCS6uraMTBT-4">
          <mxGeometry relative="1" as="geometry" />
        </mxCell>
        <mxCell id="jwf3IsL6oHCS6uraMTBT-1" value="" style="sketch=0;outlineConnect=0;fontColor=#232F3E;gradientColor=none;fillColor=#ED7100;strokeColor=none;dashed=0;verticalLabelPosition=bottom;verticalAlign=top;align=center;html=1;fontSize=12;fontStyle=0;aspect=fixed;pointerEvents=1;shape=mxgraph.aws4.container_2;" vertex="1" parent="1">
          <mxGeometry x="410.8" y="390" width="108.39" height="70" as="geometry" />
        </mxCell>
        <mxCell id="jwf3IsL6oHCS6uraMTBT-3" value="" style="sketch=0;points=[[0,0,0],[0.25,0,0],[0.5,0,0],[0.75,0,0],[1,0,0],[0,1,0],[0.25,1,0],[0.5,1,0],[0.75,1,0],[1,1,0],[0,0.25,0],[0,0.5,0],[0,0.75,0],[1,0.25,0],[1,0.5,0],[1,0.75,0]];outlineConnect=0;fontColor=#232F3E;fillColor=#ED7100;strokeColor=#ffffff;dashed=0;verticalLabelPosition=bottom;verticalAlign=top;align=center;html=1;fontSize=12;fontStyle=0;aspect=fixed;shape=mxgraph.aws4.resourceIcon;resIcon=mxgraph.aws4.fargate;" vertex="1" parent="1">
          <mxGeometry x="334.49" y="330" width="51" height="51" as="geometry" />
        </mxCell>
        <mxCell id="jwf3IsL6oHCS6uraMTBT-4" value="CloudWatch Logs" style="sketch=0;outlineConnect=0;fontColor=#232F3E;gradientColor=none;fillColor=#E7157B;strokeColor=none;dashed=0;verticalLabelPosition=bottom;verticalAlign=top;align=center;html=1;fontSize=12;fontStyle=0;aspect=fixed;pointerEvents=1;shape=mxgraph.aws4.cloudwatch_logs;" vertex="1" parent="1">
          <mxGeometry x="426.49" y="620" width="78" height="58" as="geometry" />
        </mxCell>
      </root>
    </mxGraphModel>
  </diagram>
</mxfile>
